# Blender v2.79 (sub 0) OBJ File: ''
# www.blender.org
mtllib untitled.mtl
o Circle_Circle.001
v -0.546475 0.831913 -0.001034
v -0.699962 0.709965 -0.001034
v -0.826709 0.560417 -0.001034
v -0.921845 0.389015 -0.001034
v -0.981714 0.202346 -0.001035
v -1.004016 0.007585 -0.001035
v -0.987892 -0.187786 -0.001035
v -0.933964 -0.376256 -0.001036
v -0.844303 -0.550585 -0.001036
v -0.722356 -0.704071 -0.001036
v -0.572808 -0.830818 -0.001036
v -0.401406 -0.925954 -0.001037
v -0.214737 -0.985823 -0.001037
v -0.019975 -1.008125 -0.001037
v 0.175395 -0.992001 -0.001037
v 0.363866 -0.938073 -0.001037
v 0.538194 -0.848412 -0.001037
v 0.691681 -0.726465 -0.001037
v 0.818428 -0.576916 -0.001036
v 0.913563 -0.405514 -0.001036
v 0.973432 -0.218846 -0.001036
v 0.995734 -0.024084 -0.001035
v 0.979611 0.171286 -0.001035
v 0.925682 0.359757 -0.001035
v 0.836021 0.534085 -0.001035
v 0.714073 0.687572 -0.001034
v 0.564525 0.814319 -0.001034
v 0.393123 0.909455 -0.001034
v 0.206454 0.969323 -0.001034
v 0.011692 0.991625 -0.001034
v -0.183678 0.975501 -0.001034
v -0.372148 0.921573 -0.001034
v -0.004141 -0.008250 -0.001035
vn -0.0000 0.0000 -1.0000
usemtl None
s off
f 6//1 5//1 33//1
f 1//1 32//1 33//1
f 20//1 19//1 33//1
f 7//1 6//1 33//1
f 21//1 20//1 33//1
f 8//1 7//1 33//1
f 22//1 21//1 33//1
f 9//1 8//1 33//1
f 23//1 22//1 33//1
f 10//1 9//1 33//1
f 24//1 23//1 33//1
f 11//1 10//1 33//1
f 25//1 24//1 33//1
f 12//1 11//1 33//1
f 26//1 25//1 33//1
f 13//1 12//1 33//1
f 27//1 26//1 33//1
f 14//1 13//1 33//1
f 28//1 27//1 33//1
f 15//1 14//1 33//1
f 2//1 1//1 33//1
f 29//1 28//1 33//1
f 16//1 15//1 33//1
f 3//1 2//1 33//1
f 30//1 29//1 33//1
f 17//1 16//1 33//1
f 4//1 3//1 33//1
f 31//1 30//1 33//1
f 18//1 17//1 33//1
f 5//1 4//1 33//1
f 32//1 31//1 33//1
f 19//1 18//1 33//1
